<svg version="1.1" id="Layer_1" xmlns="http://www.w3.org/2000/svg" xmlns:xlink="http://www.w3.org/1999/xlink" x="0px" y="0px"
	 width="100%" viewBox="0 0 1920 1920" enable-background="new 0 0 1920 1920" xml:space="preserve">
<path fill="#22a55b" opacity="1.000000" stroke="none" 
	d="
M1287.135742,1451.974609 
	C1287.023926,1456.498169 1286.862549,1460.642334 1283.823120,1463.996216 
	C1283.434814,1464.424683 1283.036133,1465.086548 1283.066895,1465.615601 
	C1283.435181,1471.916016 1282.074097,1479.817505 1280.476074,1485.792725 
	C1279.533569,1489.316528 1280.264526,1493.270996 1279.439819,1496.846558 
	C1277.240967,1506.380859 1273.297241,1515.044556 1264.174927,1519.985107 
	C1254.571533,1525.186279 1244.662109,1529.830811 1235.145996,1535.180420 
	C1230.946655,1537.540894 1226.078979,1540.296875 1223.855957,1544.205078 
	C1220.785767,1549.602539 1216.252563,1553.887451 1213.832642,1560.021484 
	C1211.798462,1565.178101 1210.479492,1570.834229 1207.401733,1575.865601 
	C1204.523926,1580.569702 1204.240356,1586.814209 1202.534790,1592.293457 
	C1200.229126,1599.700684 1196.729126,1606.852051 1190.831421,1611.700806 
	C1185.035889,1616.465332 1177.892578,1619.612549 1171.265015,1623.334717 
	C1167.402466,1625.503906 1163.385010,1627.395874 1159.448975,1629.434814 
	C1155.889526,1631.278564 1151.859985,1632.583862 1148.889282,1635.122803 
	C1140.967163,1641.893677 1130.597168,1646.277832 1126.798462,1657.272949 
	C1125.991333,1659.608765 1123.365967,1661.424194 1122.890991,1663.747803 
	C1121.049194,1672.754761 1119.811890,1681.883545 1118.182251,1690.936768 
	C1117.701050,1693.609863 1117.396973,1696.821167 1115.760620,1698.690552 
	C1109.420288,1705.933105 1102.576294,1711.895508 1092.815430,1715.463501 
	C1079.935791,1720.171875 1067.138184,1722.109375 1053.725464,1722.013672 
	C1050.933350,1721.993652 1048.140991,1722.010620 1045.000977,1722.010620 
	C1045.000977,1714.924072 1045.365479,1708.415649 1044.908569,1701.965454 
	C1044.340210,1693.942749 1042.944214,1686.226562 1039.796509,1678.467773 
	C1037.460938,1672.711304 1035.436401,1667.084595 1031.191162,1662.665771 
	C1025.114746,1656.340820 1017.489563,1652.679199 1009.179626,1649.679565 
	C1002.626709,1647.314087 996.135498,1647.500854 989.920105,1648.243652 
	C978.773560,1649.575684 968.373230,1653.543579 962.363770,1664.230591 
	C957.113464,1673.567627 950.823914,1682.172852 942.773804,1689.157349 
	C936.604431,1694.510132 929.354126,1698.595703 922.898926,1703.646362 
	C916.767700,1708.443604 909.637207,1712.111938 905.620789,1719.412476 
	C902.728821,1724.668945 899.024597,1729.474365 895.786743,1734.547485 
	C894.818237,1736.065063 893.981934,1737.748779 893.527405,1739.473022 
	C893.340271,1740.182983 894.320374,1741.200439 894.876648,1742.287231 
	C893.712708,1743.028931 892.509338,1743.795776 892.011230,1744.113159 
	C891.152771,1754.380005 888.716248,1764.300171 892.510071,1774.633911 
	C886.902466,1777.485474 880.635376,1776.700317 875.196960,1774.042480 
	C866.250977,1769.670654 857.690125,1764.439087 849.263611,1759.101562 
	C843.731750,1755.597778 838.888306,1751.016602 833.409973,1747.414673 
	C830.544983,1745.530884 826.881287,1744.912231 823.740601,1743.387939 
	C812.756226,1738.056641 801.056885,1737.644165 789.199768,1737.996582 
	C773.856628,1738.452637 761.392151,1744.975098 750.997742,1755.928345 
	C746.186890,1760.997925 741.300476,1766.001953 736.661011,1771.224609 
	C734.906067,1773.199951 733.717224,1775.688599 732.391479,1778.012451 
	C732.299072,1778.174438 733.215881,1778.912231 733.061035,1778.749634 
	C729.595947,1782.778076 726.099731,1786.976440 722.455933,1791.042236 
	C718.647095,1795.292114 714.957092,1799.709595 710.702942,1803.474976 
	C708.393677,1805.518799 705.927551,1805.318848 702.701233,1802.675049 
	C689.699951,1792.021729 677.967712,1779.542847 662.791809,1771.863281 
	C654.701355,1767.769043 645.917236,1764.964844 637.293518,1762.026611 
	C627.524109,1758.697998 617.468628,1756.852661 607.034729,1756.855469 
	C601.615479,1756.856934 596.066284,1754.596069 590.805847,1755.239014 
	C582.171692,1756.294434 573.051575,1755.839233 565.097473,1760.157593 
	C560.920227,1762.425537 559.641296,1767.007446 560.146057,1771.322998 
	C560.969238,1778.360352 557.922302,1782.484009 551.917114,1785.232300 
	C546.066528,1787.909912 540.594666,1787.545654 534.717407,1784.722656 
	C528.896973,1781.926880 522.526733,1780.295776 516.473694,1777.957031 
	C512.557007,1776.443970 508.585297,1774.905273 504.977661,1772.797119 
	C498.582153,1769.059814 491.415558,1768.541992 484.533325,1766.682007 
	C476.221741,1764.435791 467.985748,1764.567871 459.912079,1765.299805 
	C451.779358,1766.036987 443.720734,1768.706543 435.915222,1771.367188 
	C432.952179,1772.377319 430.785400,1775.723389 427.106598,1779.041016 
	C427.106598,1773.895996 426.877960,1769.963135 427.186829,1766.072876 
	C427.393311,1763.471802 428.570709,1760.961792 428.953613,1758.358032 
	C430.065826,1750.795166 430.922241,1743.194580 432.021973,1735.629761 
	C432.895844,1729.618774 433.744293,1723.586182 435.051270,1717.661987 
	C435.977600,1713.463013 437.562592,1708.926392 437.932526,1705.149902 
	C438.264648,1701.759277 440.742859,1698.560547 439.588318,1694.622803 
	C438.856995,1692.128540 440.522064,1688.906494 441.196533,1686.030518 
	C442.681030,1679.700562 444.119232,1673.356934 445.769897,1667.069702 
	C446.875275,1662.859619 449.289734,1658.725952 449.243652,1654.578979 
	C449.215118,1652.009644 449.983398,1650.059204 450.515198,1647.850952 
	C451.447968,1643.977295 451.622772,1639.871216 454.456970,1636.590454 
	C454.880493,1636.099976 453.537231,1634.342773 453.829681,1633.435303 
	C455.170380,1629.274414 456.802887,1625.207642 458.328735,1621.106323 
	C458.981995,1619.350464 459.777740,1617.631348 460.251099,1615.828003 
	C461.298065,1611.839722 461.947937,1607.733276 463.209137,1603.819824 
	C464.152557,1600.892578 465.586334,1598.064575 467.175385,1595.416626 
	C470.456421,1589.949463 473.622406,1584.351685 477.494873,1579.314331 
	C484.437347,1570.283325 491.405487,1561.190308 499.218445,1552.932617 
	C507.469574,1544.211670 516.842285,1536.563110 525.497742,1528.210327 
	C533.669922,1520.324097 541.690674,1512.267212 549.468384,1503.994385 
	C551.898743,1501.409546 553.172913,1497.770752 555.284302,1494.835938 
	C556.077820,1493.733032 558.116821,1493.541504 558.948242,1492.447998 
	C562.178345,1488.199585 565.373047,1483.892334 568.167908,1479.352661 
	C572.351807,1472.556763 576.194092,1465.550537 580.166565,1458.624878 
	C581.157715,1456.896851 582.130798,1455.156006 583.042847,1453.385376 
	C585.037781,1449.512451 587.043152,1445.642212 588.886902,1441.697388 
	C589.114929,1441.209473 588.385742,1440.274170 588.039368,1439.391602 
	C588.859497,1439.122070 589.853027,1438.795654 591.207336,1438.350586 
	C590.373840,1437.408936 589.780151,1436.738159 589.906250,1436.880615 
	C591.698669,1432.512695 593.400146,1428.670898 594.847229,1424.735718 
	C595.849670,1422.009644 596.444519,1419.136597 597.329895,1416.363770 
	C597.902283,1414.571411 598.833923,1412.885742 599.322327,1411.076050 
	C601.182434,1404.184082 603.996399,1397.328003 604.435364,1390.332031 
	C604.939697,1382.294312 608.113342,1374.777832 607.448792,1366.479736 
	C606.738647,1357.611938 607.882202,1348.607910 607.960754,1339.661133 
	C608.041077,1330.510864 608.042969,1321.346802 607.614624,1312.210571 
	C607.412537,1307.901489 604.737793,1303.294800 605.702942,1299.456543 
	C606.747375,1295.302612 603.492065,1292.461426 604.583374,1288.373169 
	C605.357849,1285.471802 602.974854,1281.712280 601.949890,1278.351440 
	C601.287292,1276.178467 600.400024,1274.066650 599.851379,1271.868042 
	C599.135010,1268.997437 599.463562,1265.475952 597.876892,1263.306519 
	C595.646973,1260.257690 595.063477,1257.191895 594.724731,1253.741699 
	C594.674683,1253.231812 593.140564,1252.867432 592.289917,1252.436768 
	C595.373901,1248.166626 591.446045,1246.530151 588.968689,1243.950806 
	C593.916016,1241.561035 589.572754,1239.178345 588.433350,1237.617432 
	C586.806946,1235.388916 583.499512,1234.412720 585.671082,1230.554810 
	C586.032776,1229.912109 584.210815,1228.097046 583.492981,1226.772217 
	C582.876709,1225.635010 582.396484,1224.424072 581.856079,1223.245728 
	C582.254333,1222.785034 582.652527,1222.324341 583.050720,1221.863647 
	C581.796326,1221.385986 580.541992,1220.908447 580.630981,1220.942383 
	C580.027100,1218.501465 579.668030,1216.972412 579.269470,1215.453613 
	C577.930664,1210.352173 578.168884,1205.464600 580.619141,1200.643555 
	C581.959900,1198.005859 582.764160,1195.088501 583.736267,1192.271729 
	C584.944092,1188.772217 585.060913,1184.067505 587.467468,1181.996460 
	C591.495483,1178.529907 593.653381,1174.229736 596.081421,1169.921265 
	C597.230469,1167.881958 597.826355,1165.528076 598.997437,1163.504639 
	C601.678955,1158.871094 604.476074,1154.298706 607.382446,1149.802490 
	C610.666077,1144.722534 614.867371,1140.086426 617.297363,1134.644531 
	C619.884460,1128.850708 624.695068,1124.830811 627.515747,1119.317139 
	C629.399841,1115.634277 632.072388,1112.333374 634.570557,1108.995117 
	C635.859619,1107.272583 637.618713,1105.910522 639.025818,1104.266113 
	C643.942688,1098.520630 643.124695,1091.528442 642.940430,1084.779541 
	C642.782776,1079.007446 642.455139,1073.634277 635.704651,1070.451416 
	C630.768005,1068.123779 624.961548,1064.301636 623.124023,1059.711792 
	C621.406006,1055.420654 618.154419,1052.286133 616.798950,1048.163208 
	C614.596680,1041.464844 611.731018,1035.106079 610.484131,1027.900269 
	C608.788940,1018.103455 607.072815,1008.460205 606.881958,998.472900 
	C606.682678,988.043823 603.873596,977.367737 605.358582,967.263000 
	C608.821472,943.699341 605.547546,920.129761 607.298828,896.629456 
	C607.900574,888.555237 607.666077,880.422241 608.019348,872.325073 
	C608.859863,853.056274 609.835327,833.793335 610.725891,814.526672 
	C610.890320,810.967407 610.868042,807.399841 611.007202,803.839050 
	C611.659241,787.154175 611.339233,770.353760 613.269531,753.816711 
	C615.483337,734.850708 615.239746,715.885620 616.054626,696.916260 
	C616.802246,679.512390 617.861694,662.118164 619.062378,644.738953 
	C619.732788,635.034729 621.270203,625.388550 621.883057,615.682495 
	C622.828857,600.703918 623.228455,585.691772 624.021973,570.702393 
	C624.925537,553.633789 625.096252,536.450317 627.398926,519.564026 
	C628.537659,511.213318 628.508179,502.997437 628.995605,494.720245 
	C630.097290,476.014282 631.174377,457.306885 632.273193,438.600769 
	C633.173218,423.280579 634.069275,407.960175 635.007202,392.642303 
	C635.639160,382.323090 635.622864,371.899475 637.164917,361.714600 
	C640.119263,342.202332 638.229309,322.462982 640.311279,303.048126 
	C643.058838,277.428192 641.961914,251.761673 643.576843,226.160416 
	C644.407837,212.985458 643.439819,199.613358 645.243225,186.601761 
	C648.464600,163.358307 646.035706,140.110855 647.061157,116.897430 
	C647.081665,116.433144 647.313660,115.978195 647.518188,115.273895 
	C922.129028,115.273895 1196.703247,115.273895 1471.999512,115.273895 
	C1471.999512,117.799301 1471.999634,120.228981 1471.999634,122.658669 
	C1471.999878,516.638367 1471.997681,910.618103 1472.042480,1304.597778 
	C1472.042847,1307.735474 1472.127197,1311.067993 1473.145386,1313.967896 
	C1474.956909,1319.127441 1478.757935,1322.011353 1484.578491,1322.412476 
	C1487.954224,1322.644897 1491.605225,1323.090698 1493.750977,1326.754883 
	C1494.349609,1327.777100 1496.342773,1327.982788 1496.482544,1329.017334 
	C1496.990601,1330.538330 1497.648926,1332.028320 1497.971069,1333.587646 
	C1498.438721,1335.851562 1498.969849,1338.170410 1498.934326,1340.457397 
	C1498.830688,1347.142090 1498.903442,1353.879150 1498.062012,1360.488159 
	C1497.301270,1366.464478 1495.496338,1372.317139 1493.946045,1378.169922 
	C1493.777710,1378.805542 1492.244873,1379.079834 1491.007690,1379.687256 
	C1491.656494,1380.522461 1492.260864,1381.300415 1492.848145,1382.056274 
	C1492.543091,1382.403687 1492.365234,1382.651611 1492.143677,1382.851318 
	C1490.590210,1384.253174 1488.586426,1385.378540 1487.552246,1387.090942 
	C1484.664307,1391.872559 1481.797974,1392.740723 1476.826660,1390.046265 
	C1463.254517,1382.690552 1448.715332,1381.788208 1433.736084,1383.635986 
	C1420.061035,1385.322998 1409.851196,1393.780640 1398.934692,1400.968262 
	C1390.030396,1406.831055 1380.811768,1410.895508 1369.427246,1410.286743 
	C1355.872559,1409.561768 1342.056396,1409.562500 1328.660645,1411.440063 
	C1319.228271,1412.762085 1310.545532,1417.802490 1302.934814,1424.516724 
	C1295.754639,1430.851074 1292.180176,1438.974976 1289.214355,1447.386108 
	C1288.673462,1448.919922 1287.770386,1450.188110 1287.135742,1451.974609 
z"/>
</svg>